<?xml version="1.0" encoding="UTF-8" standalone="no"?>
<!-- Created with Inkscape (http://www.inkscape.org/) -->

<svg
   xmlns:dc="http://purl.org/dc/elements/1.1/"
   xmlns:cc="http://creativecommons.org/ns#"
   xmlns:rdf="http://www.w3.org/1999/02/22-rdf-syntax-ns#"
   xmlns:svg="http://www.w3.org/2000/svg"
   xmlns="http://www.w3.org/2000/svg"
   xmlns:sodipodi="http://sodipodi.sourceforge.net/DTD/sodipodi-0.dtd"
   xmlns:inkscape="http://www.inkscape.org/namespaces/inkscape"
   version="1.1"
   viewBox="0 0 1050 1600"
   id="svg77"
   sodipodi:docname="free-epub-cover.svg"
   inkscape:version="0.92.3 (2405546, 2018-03-11)">
  <sodipodi:namedview
     pagecolor="#ffffff"
     bordercolor="#666666"
     borderopacity="1"
     objecttolerance="10"
     gridtolerance="10"
     guidetolerance="10"
     inkscape:pageopacity="0"
     inkscape:pageshadow="2"
     inkscape:window-width="1920"
     inkscape:window-height="1015"
     id="namedview79"
     showgrid="false"
     showguides="false"
     inkscape:zoom="0.59"
     inkscape:cx="59.322034"
     inkscape:cy="850.27721"
     inkscape:window-x="0"
     inkscape:window-y="0"
     inkscape:window-maximized="1"
     inkscape:current-layer="svg77" />
  <defs
     id="defs35">
    <filter
       id="filter3874"
       color-interpolation-filters="sRGB">
      <feGaussianBlur
         stdDeviation="0.01 5"
         in="SourceGraphic"
         id="feGaussianBlur2" />
    </filter>
    <filter
       id="filter4056"
       color-interpolation-filters="sRGB">
      <feGaussianBlur
         in="SourceGraphic"
         stdDeviation="3"
         result="result6"
         id="feGaussianBlur5" />
      <feColorMatrix
         in="SourceGraphic"
         values="1 0 0 0 0 0 1 0 0 0 0 0 1 0 0 0 0 0 1 0 "
         result="result7"
         id="feColorMatrix7" />
      <feComposite
         operator="in"
         result="fbSourceGraphic"
         in2="result7"
         in="result6"
         id="feComposite9" />
      <feColorMatrix
         values="0 0 0 -1 0 0 0 0 -1 0 0 0 0 -1 0 0 0 0 1 0"
         result="fbSourceGraphicAlpha"
         in="fbSourceGraphic"
         id="feColorMatrix11" />
      <feGaussianBlur
         in="fbSourceGraphic"
         stdDeviation="3"
         result="result6"
         id="feGaussianBlur13" />
      <feColorMatrix
         in="fbSourceGraphic"
         values="1 0 0 0 0 0 1 0 0 0 0 0 1 0 0 0 0 0 1 0 "
         result="result7"
         id="feColorMatrix15" />
      <feComposite
         operator="in"
         in2="result7"
         in="result6"
         id="feComposite17" />
    </filter>
    <filter
       id="filter4098"
       color-interpolation-filters="sRGB">
      <feGaussianBlur
         in="SourceGraphic"
         stdDeviation="3"
         result="result6"
         id="feGaussianBlur20" />
      <feColorMatrix
         in="SourceGraphic"
         values="1 0 0 0 0 0 1 0 0 0 0 0 1 0 0 0 0 0 1 0 "
         result="result7"
         id="feColorMatrix22" />
      <feComposite
         operator="in"
         result="fbSourceGraphic"
         in2="result7"
         in="result6"
         id="feComposite24" />
      <feColorMatrix
         values="0 0 0 -1 0 0 0 0 -1 0 0 0 0 -1 0 0 0 0 1 0"
         result="fbSourceGraphicAlpha"
         in="fbSourceGraphic"
         id="feColorMatrix26" />
      <feGaussianBlur
         in="fbSourceGraphic"
         stdDeviation="3"
         result="result6"
         id="feGaussianBlur28" />
      <feColorMatrix
         in="fbSourceGraphic"
         values="1 0 0 0 0 0 1 0 0 0 0 0 1 0 0 0 0 0 1 0 "
         result="result7"
         id="feColorMatrix30" />
      <feComposite
         operator="in"
         in2="result7"
         in="result6"
         id="feComposite32" />
    </filter>
  </defs>
  <metadata
     id="metadata37">
    <rdf:RDF>
      <cc:Work
         rdf:about="">
        <dc:format>image/svg+xml</dc:format>
        <dc:type
           rdf:resource="http://purl.org/dc/dcmitype/StillImage" />
        <dc:title />
      </cc:Work>
    </rdf:RDF>
  </metadata>
  <rect
     style="enable-background:accumulate;fill-rule:nonzero;color:#000000;fill:#333332;"
     height="1600"
     width="1050"
     y="0"
     x="0"
     id="rect39" />
  <rect
     style="enable-background:accumulate;fill-rule:nonzero;color:#000000;filter:url(#filter3874);fill:#ff4136;fill-opacity:1"
     height="169.5"
     width="1050"
     y="1435"
     x="0"
     id="rect49" />
  <rect
     style="enable-background:accumulate;fill-rule:nonzero;color:#000000;fill:#ffdc00;fill-opacity:1"
     height="6"
     width="1050"
     y="1453"
     x="0"
     id="rect51" />
  <text
     id="text59"
     x="324.95593"
     y="633.82001"
     xml:space="preserve"
     style="font-style:normal;font-variant:normal;font-weight:bold;font-stretch:normal;font-size:86px;line-height:100%;font-family:'M+ 1p';text-align:start;letter-spacing:-4px;word-spacing:0px;writing-mode:lr-tb;text-anchor:start;fill:#b3b3b1;stroke:#b3b3b1;stroke-width:3;stroke-miterlimit:4;stroke-dasharray:none"><tspan
       id="tspan57"
       y="633.82001"
       x="324.95593"
       style="font-size:74.66666412px">SUI SIN FAR</tspan></text>
  <g
     id="g4662"
     transform="translate(-80.929487)">
    <text
       style="font-style:normal;font-variant:normal;font-weight:bold;font-stretch:normal;font-size:86px;line-height:100%;font-family:'M+ 1p';text-align:start;letter-spacing:-4px;word-spacing:0px;writing-mode:lr-tb;text-anchor:start;fill:#b3b3b1;stroke:#b3b3b1;stroke-width:3;stroke-miterlimit:4;stroke-dasharray:none"
       y="519.82001"
       x="162.99144"
       xml:space="preserve"
       id="text55"><tspan
         y="519.82001"
         x="162.99144"
         id="tspan53">In the Land of the Free</tspan></text>
    <text
       style="font-style:normal;font-variant:normal;font-weight:bold;font-stretch:normal;font-size:86px;line-height:100%;font-family:'M+ 1p';text-align:start;letter-spacing:-4px;word-spacing:0px;writing-mode:lr-tb;text-anchor:start;fill:#ffffff"
       xml:space="preserve"
       y="519.82001"
       x="162.99144"
       id="text65"><tspan
         x="162.99144"
         y="519.82001"
         id="tspan63">In the Land of the Free</tspan></text>
  </g>
  <text
     id="text69"
     xml:space="preserve"
     x="324.95593"
     y="633.82001"
     style="font-style:normal;font-variant:normal;font-weight:bold;font-stretch:normal;font-size:86px;line-height:100%;font-family:'M+ 1p';text-align:start;letter-spacing:-4px;word-spacing:0px;writing-mode:lr-tb;text-anchor:start;fill:#ffffff"><tspan
       id="tspan67"
       x="324.95593"
       y="633.82001"
       style="font-size:74.66666412px">SUI SIN FAR</tspan></text>
  <path
     style="fill:#ffffff;fill-opacity:1"
     d="m 516.76632,1010.6769 c -5.22825,-9.4624 -5.26534,-9.5675 -3.72176,-10.5438 2.19278,-1.38692 4.96339,-1.14312 4.96339,0.4368 0,0.7662 -0.675,1.6521 -1.5,1.9687 -1.6467,0.6319 -2.09504,4.6383 -0.51905,4.6383 0.53952,0 1.2633,-1.125 1.60841,-2.5 0.60562,-2.413 0.94624,-2.6828 3.66064,-2.9 1.85351,-0.1483 3.6042,-3.86482 2.50005,-5.30732 -0.52211,-0.6821 -0.66429,-5.9025 -0.32682,-12 0.42859,-7.7438 1.57677,-100.37975 1.57677,-127.21466 0,-0.8288 1.54805,-0.99532 5.25,-0.56472 4.49204,0.5225 5.58218,0.30052 7.55082,-1.53759 1.84063,-1.71859 2.06235,-2.4356 1.10856,-3.58485 -0.96855,-1.16703 -0.88426,-1.3184 0.44918,-0.80671 1.07234,0.41149 1.64144,0.10982 1.64144,-0.87012 0,-0.825 -0.675,-1.75902 -1.5,-2.07561 -0.825,-0.31658 -1.5,-0.15385 -1.5,0.36163 0,0.51548 -0.59179,0.71014 -1.3151,0.43258 -0.7233,-0.27756 -2.5669,0.65548 -4.09688,2.07342 -2.19483,2.0341 -3.07784,2.33237 -4.1849,1.41359 -1.67638,-1.39126 -1.84562,-4.52808 -0.29599,-5.4858 0.74503,-0.46046 0.88652,0.0108 0.43262,1.44098 -0.99667,3.14022 1.77053,2.73204 5.3767,-0.7931 2.61949,-2.56063 3.6962,-2.91311 8.78448,-2.87574 6.60229,0.0485 10.69323,2.24406 11.70693,6.28299 0.34664,1.38109 1.07167,2.51108 1.61119,2.51108 2.38162,0 0.82594,5.44851 -2.46948,8.64898 -3.72543,3.61809 -5.9994,4.22712 -6.9112,1.85102 -0.84687,-2.20692 -5.07446,-1.8258 -8.31956,0.75 -1.55904,1.2375 -3.73107,2.74151 -4.82672,3.34224 -4.212,2.30939 -4.32439,3.72553 -4.63542,58.40779 l -0.29862,52.5 2.34721,3.1664 c 1.29097,1.7415 3.19041,3.3868 4.22098,3.6563 1.448,0.3787 1.87376,1.4233 1.87376,4.5972 0,2.259 -0.41715,4.8886 -0.927,5.8436 -0.50985,0.955 -1.17332,2.5307 -1.47438,3.5014 -0.30105,0.97082 -1.6839,2.19712 -3.07299,2.72532 -1.3891,0.5281 -2.52563,1.3902 -2.52563,1.9156 0,1.3425 -4.34123,8.0005 -5.25,8.0518 -0.4125,0.023 -0.75,-1.3558 -0.75,-3.0647 0,-2.3509 0.36501,-2.9669 1.5,-2.5313 1.04916,0.4026 1.5,-0.076 1.5,-1.5931 0,-1.6867 -0.26667,-1.9019 -1.2,-0.9686 -0.66,0.66 -2.00143,1.2 -2.98095,1.2 -1.66987,0 -2.17251,1.0635 -3.07214,6.5 -0.28822,1.7417 -0.54502,1.6126 -1.98854,-1 z m 16.03602,-12.59872 c 0.16191,-1.3445 -0.4273,-4.1717 -1.30936,-6.2828 -1.50235,-3.5956 -1.69282,-3.7207 -3.01259,-1.9784 -1.27595,1.6845 -1.41183,1.412 -1.44064,-2.89 -0.0175,-2.6125 -0.4818,-4.75 -1.0318,-4.75 -1.16206,0 -1.24328,2.3791 -0.36733,10.7597 0.50304,4.8128 1.0665,6.2624 2.75,7.07502 2.93375,1.4162 4.0682,0.9189 4.41172,-1.93352 z m -5.13211,-109.15123 c -0.27741,-0.6875 -0.50438,-0.125 -0.50438,1.25 0,1.375 0.22697,1.9375 0.50438,1.25 0.27741,-0.6875 0.27741,-1.8125 0,-2.5 z m 7.33772,-23.72968 c 0,-1.41193 7.4759,-5.02032 10.40114,-5.02032 1.36446,0 2.75894,0.45 3.09886,1 1.13244,1.83232 2.5,1.03103 2.5,-1.46482 0,-1.53946 -0.84471,-2.90825 -2.25,-3.64598 -1.2375,-0.64964 -2.60986,-1.79048 -3.04969,-2.53518 -0.92853,-1.57216 -3.64166,-1.82325 -3.82531,-0.35402 -0.0687,0.55 -0.18125,1.45721 -0.25,2.01601 -0.0687,0.55881 -1.45379,1.88769 -3.07786,2.95307 -2.25515,1.47935 -3.96821,1.79788 -7.25,1.34806 -4.19114,-0.57446 -4.29714,-0.51904 -4.29714,2.24694 0,2.20571 0.26667,2.56925 1.2,1.63592 1.76299,-1.76299 2.8,-1.46671 2.8,0.8 0,1.33333 0.66667,2 2,2 1.1,0 2,-0.44085 2,-0.97968 z m 16.68311,-11.20782 c -0.31922,-0.79773 -0.55618,-0.56078 -0.60416,0.60417 -0.0434,1.05416 0.19292,1.64479 0.52522,1.3125 0.33229,-0.3323 0.36781,-1.1948 0.0789,-1.91667 z m -0.68311,-3.28682 c 0,-1.71948 -5.59513,-4.89394 -7.04568,-3.99745 -1.42492,0.88065 -0.14891,2.47177 1.98225,2.47177 1.0002,0 2.37874,0.675 3.06343,1.5 1.56271,1.88296 2,1.88857 2,0.0257 z m -43.62916,148.72425 c -0.31151,-0.9625 -1.18991,-3.4278 -1.95198,-5.4786 -1.62678,-4.3777 -0.48174,-8.7505 2.30639,-8.8078 0.97833,-0.02 2.99404,-1.9629 4.49184,-4.3293 l 2.71708,-4.2927 0.54185,-37.9207 c 0.98238,-68.75115 0.96142,-69.54139 -1.90308,-71.74696 -0.74544,-0.57397 -0.6914,-0.98095 0.17706,-1.33333 0.6875,-0.27897 1.25,-1.14471 1.25,-1.92387 0,-2.21373 1.96587,-1.66193 2.96884,0.83333 0.76553,1.90455 0.91412,1.62306 0.96777,-1.83333 0.0789,-5.08345 -0.31605,-5.47718 -4.07214,-4.05941 -2.63397,0.99421 -3.61645,0.80308 -7.69207,-1.4964 -2.76698,-1.56114 -4.61576,-3.2937 -4.53351,-4.24852 0.17336,-2.01257 -1.50526,-2.12415 -2.26266,-0.15041 -0.30854,0.80407 -1.4199,1.73454 -2.46967,2.06773 -2.51433,0.79801 -4.43412,4.34278 -3.08347,5.69343 0.67783,0.67783 1.69791,0.5254 3.11191,-0.46501 1.15694,-0.81035 3.12718,-1.27769 4.37829,-1.03852 2.53031,0.4837 10.86795,7.18355 9.01344,7.24289 -0.64531,0.0206 -2.51027,-1.08745 -4.14436,-2.46245 -3.30083,-2.77747 -4.91362,-3.0352 -8.56953,-1.36946 -2.11039,0.96156 -2.93191,0.77472 -5.49613,-1.25 -3.90942,-3.08688 -4.65605,-5.40846 -2.69964,-8.39432 0.87061,-1.32872 1.58293,-3.23466 1.58293,-4.23543 0,-3.01789 4.80812,-5.01833 11.5,-4.78463 5.21344,0.18206 6.43992,0.62407 9.35575,3.37169 4.86061,4.58018 6.4368,4.0931 4.00759,-1.23843 -0.67575,-1.48312 -3.25596,-3.49813 -6.36318,-4.96933 -2.87459,-1.36106 -5.49898,-3.18462 -5.83196,-4.05237 -0.33454,-0.87179 -1.75767,-1.57772 -3.18065,-1.57772 -1.53386,0 -2.46881,-0.50547 -2.31207,-1.25 0.14473,-0.6875 -0.58149,-2.51679 -1.61382,-4.06509 -1.52692,-2.29008 -2.54693,-2.78487 -5.46932,-2.6531 -10.11395,0.45603 -10.56054,-0.74383 -1.85723,-4.9899 8.69366,-4.24136 12.94181,-3.76845 12.64889,1.40809 -0.0964,1.70432 -0.19351,1.75285 -0.57568,0.28776 -0.58392,-2.23853 -2.30832,-1.2515 -2.30832,1.32126 0,1.06754 -0.483,1.94098 -1.07332,1.94098 -0.59033,0 -0.91789,0.7875 -0.72791,1.75 0.2497,1.265 1.3093,1.75 3.82333,1.75 3.16711,0 3.45345,0.2376 3.20433,2.65888 -0.19444,1.8899 0.49529,3.26367 2.38486,4.75 1.46214,1.15012 3.22515,2.09112 3.91781,2.09112 2.27027,0 7.4709,5.70901 7.4709,8.20121 0,4.51831 -2.07082,5.12248 -5.65396,1.64956 l -3.25161,-3.15158 -2.52994,2.40041 c -1.39146,1.32022 -2.53771,2.7012 -2.54721,3.06884 -0.041,1.58484 6.96125,4.91841 8.69251,4.13827 0.98461,-0.44369 3.13928,-0.80671 4.78814,-0.80671 h 2.99792 l -0.24506,29.5 c -0.61256,73.74093 -1.50845,108.97023 -2.81629,110.74613 -1.21258,1.6464 -1.33229,1.649 -1.9554,0.042 -0.36505,-0.9415 -0.0597,-2.9665 0.67858,-4.5 1.02168,-2.1222 1.22288,-6.6102 0.84232,-18.7882 -0.56108,-17.9546 -1.957,-17.6056 -2,0.5 -0.0313,13.1958 -0.54942,16 -2.95612,16 -3.22227,0 -5.72473,10.155 -2.79388,11.33762 0.73512,0.2967 0.51624,0.5369 -0.53138,0.5834 -0.97977,0.043 -2.03626,-0.7086 -2.34778,-1.67112 z m 2.62916,-10.7499 c 0,-0.825 -0.43588,-1.5 -0.96861,-1.5 -0.53274,0 -0.7096,0.675 -0.39302,1.5 0.31659,0.825 0.75246,1.5 0.96862,1.5 0.21616,0 0.39301,-0.675 0.39301,-1.5 z m 7.66228,-39.75 c -0.27741,-0.6875 -0.50438,-0.125 -0.50438,1.25 0,1.375 0.22697,1.9375 0.50438,1.25 0.27741,-0.6875 0.27741,-1.8125 0,-2.5 z m 0.0611,-11 c -0.22183,-1.7875 -0.40332,-0.325 -0.40332,3.25 0,3.575 0.18149,5.0375 0.40332,3.25 0.22183,-1.7875 0.22183,-4.7125 0,-6.5 z m -0.0403,-10.9375 c -0.31922,-0.7978 -0.55618,-0.5608 -0.60417,0.6041 -0.0434,1.0542 0.19293,1.6448 0.52522,1.3125 0.3323,-0.3323 0.36782,-1.1948 0.0789,-1.9166 z m -0.0208,-5.0625 c -0.27741,-0.6875 -0.50438,-0.125 -0.50438,1.25 0,1.375 0.22697,1.9375 0.50438,1.25 0.27741,-0.6875 0.27741,-1.8125 0,-2.5 z m 0.7161,-9.5 c -0.94186,-3.926 -1.37839,-4.058 -1.37839,-0.4167 0,1.7417 0.45857,3.1667 1.01905,3.1667 0.60496,0 0.75097,-1.1175 0.35933,-2.75 z m 0.62161,-17.75003 c 0,-1.375 -0.17254,-2.5 -0.38342,-2.5 -0.21088,0 -0.59848,1.125 -0.86133,2.5 -0.26285,1.375 -0.0903,2.50003 0.38342,2.50003 0.47373,0 0.86133,-1.12503 0.86133,-2.50003 z m -0.0703,-8.75 c -0.0572,-2.64657 -0.21721,-2.87866 -0.86161,-1.25 -0.43524,1.1 -0.58046,2.5625 -0.32273,3.25 0.80418,2.14515 1.25743,1.37975 1.18434,-2 z m -0.23672,-8.48097 c -0.25355,-0.97297 -0.47767,-0.41903 -0.49805,1.23097 -0.0204,1.65 0.18706,2.44606 0.46099,1.76903 0.27392,-0.67703 0.29059,-2.02703 0.0371,-3 z m -22.193,-28.26903 c 0.33992,-0.55 0.14148,-1 -0.44098,-1 -0.58246,0 -1.05902,0.45 -1.05902,1 0,0.55 0.19844,1 0.44098,1 0.24254,0 0.7191,-0.45 1.05902,-1 z m 25.16667,0.33333 c -0.36667,-0.36666 -0.67356,-2.50416 -0.68198,-4.75 -0.019,-5.05431 -1.19307,-7.10108 -3.55382,-6.19518 -1.02924,0.39496 -2.11216,0.14187 -2.58561,-0.60428 -1.39105,-2.1923 -0.93017,-3.78387 1.09572,-3.78387 2.48087,0 3.63382,-1.83139 2.1009,-3.33713 -0.9031,-0.8871 -1.63467,-0.61121 -3.08491,1.16339 -1.31624,1.61063 -2.51043,2.13285 -3.88194,1.69755 -2.41143,-0.76535 -5.07503,-5.81843 -5.07503,-9.62776 0,-1.53817 -0.5625,-3.15653 -1.25,-3.59636 -0.6875,-0.43983 -1.75969,-1.69969 -2.38264,-2.79969 -0.62295,-1.1 -1.86045,-1.86777 -2.75,-1.70616 -0.88955,0.16161 -1.61736,-0.17589 -1.61736,-0.75 0,-1.70451 2.85441,-1.18943 4.93421,0.89037 1.91228,1.91228 1.98449,1.88394 6.36842,-2.5 3.62172,-3.62172 4.06788,-4.43421 2.43495,-4.43421 -1.70692,0 -1.92025,-0.48689 -1.45892,-3.32977 l 0.54035,-3.32976 -3.8451,1.9024 c -2.1148,1.04632 -5.11158,1.75722 -6.6595,1.57977 -2.55264,-0.29263 -2.8038,-0.67143 -2.70035,-4.07264 0.1266,-4.16194 0.0901,-4.1972 -2.76545,-2.66898 -1.11095,0.59456 -2.255,0.84592 -2.54234,0.55858 -0.28734,-0.28734 1.1012,-1.20084 3.08564,-2.02999 3.47672,-1.45267 3.60809,-1.69361 3.60809,-6.6176 0,-3.15205 -0.38317,-4.87324 -1,-4.49201 -0.55,0.33992 -1,1.68381 -1,2.98644 0,2.4409 -4.1485,6.51356 -6.63486,6.51356 -1.71019,0 -1.792,1.66109 -0.11514,2.33772 0.6875,0.27741 -0.2125,0.53991 -2,0.58333 -2.18565,0.0531 -3.25,-0.38852 -3.25,-1.34847 0,-1.63849 4.6336,-5.57258 6.56343,-5.57258 1.53044,0 4.43657,-2.71449 4.43657,-4.14401 0,-0.55063 -1.18569,-0.0685 -2.63486,1.07143 -3.29949,2.59538 -6.53693,2.64522 -8.80811,0.13559 -2.02846,-2.24142 -1.20278,-4.40274 1.37,-3.58617 1.82523,0.57931 7.07297,-2.8461 7.07297,-4.61681 0,-0.54714 -1.0125,-0.74394 -2.25,-0.43733 -1.37363,0.34033 -1.0815,0.0147 0.75,-0.8359 3.76696,-1.7496 4.52935,-1.27619 4.384,2.72222 -0.0638,1.75504 -0.3218,2.40348 -0.57333,1.44098 -0.59379,-2.27221 -0.96775,-2.21634 -4.37937,0.65435 -1.57157,1.32239 -3.4037,2.58645 -4.0714,2.80902 -1.73065,0.57688 -0.0937,2.78663 2.06426,2.78663 0.99337,0 2.93155,-0.88526 4.30707,-1.96725 1.37552,-1.08198 2.71397,-1.75422 2.97432,-1.49386 0.26036,0.26035 1.25262,-0.38768 2.20503,-1.44009 1.61015,-1.77919 1.62044,-2.24102 0.14664,-6.582 -1.42571,-4.19933 -1.43285,-5.11671 -0.0711,-9.12762 1.63435,-4.81385 1.96568,-9.01769 0.7639,-9.69191 -0.4125,-0.23141 -1.99738,-0.71902 -3.52196,-1.08358 -3.58845,-0.85805 -4.69872,1.62987 -2.46457,5.52266 1.52724,2.66107 1.51675,2.74334 -0.21215,1.66363 -1.00037,-0.62474 -2.28081,-2.64108 -2.84542,-4.48074 -0.87808,-2.86107 -0.75977,-3.48764 0.81803,-4.33205 3.7705,-2.01791 10.5888,-0.78272 11.49835,2.08301 0.32368,1.01984 0.11237,2.74394 -0.46959,3.83134 -0.73561,1.37451 -0.73915,2.17421 -0.0116,2.62386 1.35982,0.84042 4.12379,-1.44959 3.31978,-2.75051 -0.88879,-1.43809 1.75645,-2.78355 4.24476,-2.15902 1.56104,0.3918 2.2657,-0.0159 2.66469,-1.54161 0.63637,-2.43349 2.9577,-2.70936 4.73888,-0.56317 1.11031,1.33784 1.40278,1.30918 2.55102,-0.25 1.23494,-1.67691 1.33053,-1.67439 1.99981,0.0527 0.79089,2.04088 -0.97284,6.68623 -2.5386,6.68623 -0.56179,0 -1.02144,-0.7301 -1.02144,-1.62245 0,-1.3486 -0.26033,-1.40639 -1.54238,-0.34238 -1.11603,0.92623 -1.84461,0.97784 -2.63572,0.18673 -1.621,-1.621 -3.8363,1.00701 -3.12896,3.71189 0.41589,1.59037 -0.2941,3.09124 -2.57611,5.44567 -3.85612,3.97851 -5.29751,8.50376 -4.07091,12.78067 0.90504,3.15568 4.56665,7.83987 6.12839,7.83987 1.412,0 0.90446,-3.03254 -0.60443,-3.61156 -1.50875,-0.57896 -3.56988,-5.46403 -3.56988,-8.46094 0,-0.97573 1.18526,-3.18265 2.63391,-4.90428 1.93403,-2.29846 3.32906,-3.04958 5.25,-2.82672 1.9913,0.23102 2.53478,0.78116 2.27565,2.3035 -1.27727,7.50371 -1.22355,9.5629 0.33522,12.84775 0.92696,1.95344 1.41414,3.99061 1.0826,4.52704 -0.70014,1.13285 1.36475,6.12521 2.53344,6.12521 0.43439,0 1.20291,-0.73818 1.70781,-1.6404 1.22878,-2.19571 2.87917,-1.012 3.68137,2.6404 0.35963,1.63739 1.08729,3.24493 1.61702,3.57232 0.57758,0.35697 0.71082,-0.41008 0.33283,-1.9161 -0.34667,-1.38124 -0.11822,-3.33144 0.50767,-4.33378 1.01638,-1.62771 1.07225,-1.58202 0.52284,0.42756 -0.75752,2.77081 0.31356,6.4954 1.63333,5.67974 1.50614,-0.93085 0.72367,-9.77126 -0.97766,-11.04565 -1.25962,-0.94353 -1.29186,-1.59367 -0.2087,-4.20864 0.70458,-1.70101 1.58084,-5.47385 1.94725,-8.38409 0.64833,-5.14952 0.74574,-5.28264 3.63393,-4.96618 4.80863,0.52689 5.7578,1.94989 5.26494,7.89322 -0.30207,3.6425 -1.12498,6.02688 -2.63463,7.63383 -1.33048,1.41624 -1.94684,2.98448 -1.56454,3.98074 0.50765,1.32292 1.08749,0.97095 2.9697,-1.80263 4.82134,-7.10466 4.8138,-13.36183 -0.0228,-18.93588 -1.38664,-1.59805 -2.51427,-3.17305 -2.50584,-3.5 0.0511,-1.98187 2.287,-3.42144 5.63518,-3.62811 2.94272,-0.18163 3.88335,-0.67677 3.9932,-2.10198 0.079,-1.0254 0.19154,-2.56187 0.25,-3.41437 0.0746,-1.08699 1.16008,-1.55 3.63398,-1.55 3.30901,0 3.38966,0.0739 1.3011,1.19163 -3.0599,1.63761 -3.77308,4.29744 -2.1767,8.1181 1.79159,4.28788 1.69947,7.48521 -0.33882,11.75955 -1.61497,3.38661 -1.6046,3.5972 0.24366,4.94868 1.43391,1.0485 2.121,1.11198 2.67143,0.2468 0.54767,-0.86084 0.74502,-0.8386 0.75634,0.0852 0.0267,2.18424 3.91521,5.24712 6.76531,5.32894 1.5125,0.0434 2.1875,0.30592 1.5,0.58334 -0.6875,0.27741 -1.25,1.14188 -1.25,1.92105 0,1.68934 -0.50466,1.75213 -3.06574,0.38148 -1.33333,-0.71358 -1.93426,-0.71358 -1.93426,0 0,1.0258 1.93116,1.47832 5.18974,1.2161 1.61418,-0.1299 3.55972,3.40296 2.47266,4.49002 -0.86521,0.86521 -8.00937,0.86754 -10.4124,0.003 -2.07415,-0.74587 -2.25,-0.51944 -2.25,2.89717 v 3.70628 l -6,-0.54406 c -5.44307,-0.49356 -6,-0.36545 -6,1.38016 0,1.5871 -0.46902,1.80651 -2.67709,1.25232 -2.42675,-0.60908 -2.25257,-0.2602 1.86273,3.73095 2.49689,2.42157 4.76084,5.07785 5.03098,5.90285 0.4222,1.28934 0.76853,1.25423 2.46602,-0.25 1.08616,-0.9625 3.33951,-1.75 5.00743,-1.75 2.69553,0 2.97947,-0.27786 2.55468,-2.5 -0.87336,-4.56869 5.57785,-2.67752 8.2065,2.40573 1.59088,3.07642 6.1499,4.66032 8.29875,2.88317 1.81913,-1.50448 1.49121,-7.66104 -0.66042,-12.39898 -1.02658,-2.26054 -2.17849,-5.9567 -2.55981,-8.21369 -0.59412,-3.51659 -0.35161,-4.4453 1.69528,-6.49219 1.31372,-1.31372 3.03802,-2.62381 3.83177,-2.91131 1.94081,-0.70298 0.24408,-2.32575 -3.30682,-3.16267 -2.4304,-0.57284 -2.75,-0.36227 -2.75,1.81187 0,2.88366 -1.53582,4.23009 -2.36383,2.07233 -0.31537,-0.82185 -1.228,-1.49426 -2.02806,-1.49426 -0.80006,0 -2.82997,-1.15725 -4.51091,-2.57167 -1.68094,-1.41442 -3.46832,-2.317 -3.97194,-2.00574 -1.04366,0.64501 -2.3019,-1.91262 -1.38969,-2.82482 1.17497,-1.17498 6.04219,-0.57048 7.26443,0.90223 0.68469,0.825 1.6115,1.5 2.05957,1.5 0.93968,0 0.0731,-6.69554 -1.18545,-9.15954 -0.97501,-1.90887 1.34363,-8.27984 3.47031,-9.53541 0.74998,-0.44278 1.92285,-1.86936 2.60639,-3.17018 1.04259,-1.98415 1.78804,-2.27666 4.62766,-1.81585 1.86168,0.30211 3.66417,0.0974 4.00552,-0.45494 1.06496,-1.72314 4.83162,-2.70178 6.18843,-1.60785 0.69984,0.56424 2.87657,1.15318 4.83718,1.30874 1.96061,0.15557 4.31302,0.93886 5.22757,1.74066 0.91455,0.80179 2.67532,1.76636 3.91282,2.14348 1.5088,0.45979 2.25,1.46758 2.25,3.05926 0,3.43135 1.78827,4.02578 2.28211,0.75858 0.42598,-2.81824 1.21026,4.84785 0.96702,9.45229 -0.22997,4.3532 -12.18477,13.01016 -15.96378,11.56002 -0.85116,-0.32662 -1.61461,0.26382 -1.93746,1.4984 -0.61369,2.34677 -3.46638,3.34864 -7.33289,2.57534 -5.98891,-1.19778 -7.63093,5.59617 -3.63755,15.05054 1.936,4.58348 3.3669,4.17045 1.73817,-0.50172 -1.42423,-4.08555 -1.43125,-8.58871 -0.0148,-9.46416 0.60547,-0.3742 2.03987,0.25863 3.18754,1.4063 1.74059,1.74059 1.89973,2.4656 0.95952,4.37136 -0.61994,1.25657 -1.05635,4.87011 -0.96981,8.03008 0.14797,5.40261 -0.0495,5.92223 -3.31038,8.70936 -1.90726,1.63018 -4.22868,2.98225 -5.15872,3.0046 -0.93004,0.0223 -1.95513,0.46804 -2.27798,0.99041 -0.86368,1.39748 -7.22454,-2.66971 -7.83678,-5.01091 -0.45206,-1.7287 -1.09048,-1.91023 -4.85736,-1.3812 -6.07092,0.85262 -6.8369,1.17595 -6.8369,2.88595 0,1.13239 0.72735,1.36092 2.9296,0.92047 2.10619,-0.42124 4.96572,0.35259 10.17393,2.75321 3.98438,1.83652 7.39038,2.89893 7.56889,2.36092 0.1785,-0.53802 2.8144,-0.82324 5.85756,-0.63383 7.24925,0.45119 10.47007,-1.48943 10.47007,-6.30842 0,-1.87986 0.45,-3.69604 1,-4.03596 0.55,-0.33992 1,0.30852 1,1.44098 0,1.16357 0.65234,2.05902 1.5,2.05902 2.33208,0 1.76846,2.64367 -1.03351,4.84769 -1.39342,1.09608 -2.10826,2.25567 -1.58853,2.57689 1.43828,0.8889 7.15897,-2.71841 7.01676,-4.42458 -0.32823,-3.93792 0.22347,-6 1.60528,-6 0.83333,0 1.5,-0.88889 1.5,-2 0,-1.11111 -0.66667,-2 -1.5,-2 -0.825,0 -1.5,0.72314 -1.5,1.60699 0,1.05452 -0.5438,1.39831 -1.58179,1 -0.86998,-0.33385 -1.76998,-0.60699 -2,-0.60699 -0.23001,0 -0.41821,-0.9 -0.41821,-2 0,-1.49044 -0.66667,-2 -2.61663,-2 -2.17649,0 -2.52306,-0.35783 -2.06034,-2.12727 0.30596,-1.17 -0.12425,-3.16591 -0.95603,-4.43537 -0.83177,-1.26945 -1.32205,-3.57468 -1.08949,-5.12273 0.41271,-2.74732 0.42641,-2.73832 0.57266,0.37635 0.0824,1.75504 0.57345,3.4528 1.09121,3.77279 0.51777,0.32 0.85527,-0.64831 0.75,-2.15179 -0.23884,-3.41146 2.36175,-4.21132 4.96767,-1.52789 2.81284,2.89649 5.34792,3.44136 7.98185,1.71554 4.10096,-2.68705 2.18126,-7.10026 -3.68976,-8.48243 l -3.45114,-0.81248 3.69098,-0.10236 c 2.03004,-0.0563 3.98241,0.36917 4.33859,0.94549 0.35619,0.57632 1.62024,0.91382 2.80902,0.75 1.52815,-0.21058 2.13699,0.21487 2.07808,1.45215 -0.29266,6.14572 -0.45437,6.5082 -3.16667,7.09787 -3.77452,0.8206 -6.02904,2.45313 -4.69836,3.40213 1.44191,1.02832 1.17334,11.23256 -0.36847,14 -1.71284,3.07441 0.3298,2.92293 2.35964,-0.17499 1.80036,-2.7477 2.26337,-8.09633 0.95872,-11.07501 -0.74561,-1.70233 -0.6511,-1.8175 0.63503,-0.77379 1.06736,0.86616 1.82325,0.91398 2.57437,0.16286 1.93743,-1.93743 2.60488,1.12073 1.1933,5.46751 -0.78421,2.41487 -3.44368,6.29027 -6.37489,9.28952 -5.60576,5.73589 -10.58382,7.6852 -19.02934,7.45152 -2.75,-0.0761 -9.13783,-0.25535 -14.19519,-0.39836 -8.38884,-0.2372 -9.28175,-0.082 -10.18232,1.77037 -0.77574,1.59559 -1.00162,1.67884 -1.05481,0.38878 -0.0372,-0.90288 -1.19268,-1.92395 -2.56768,-2.26905 -1.98625,-0.49852 -2.5,-1.25717 -2.5,-3.69175 0,-4.42456 -2.36025,-3.14365 -3.10258,1.68379 -1.02704,6.67887 -2.56595,9.4343 -5.1168,9.16166 -1.70485,-0.18221 -2.357,0.33581 -2.60511,2.06932 -0.28541,1.99414 -0.73315,2.22405 -3.25324,1.67055 -2.83115,-0.62183 -2.9227,-0.52244 -2.93592,3.18762 -0.0245,6.87215 -1.85794,10.12452 -4.31968,7.66278 z m 3.94176,-15.33333 c 0.0596,-1.375 0.17214,-3.01002 0.25,-3.63337 0.22406,-1.79378 3.87261,-2.28857 5.84509,-0.79266 3.58909,2.72192 5.12145,1.80177 5.04838,-3.03144 -0.0371,-2.45161 0.49078,-5.13001 1.17298,-5.95201 1.99773,-2.40712 0.3066,-5.35643 -5.55381,-9.68577 -3.01347,-2.22618 -5.97697,-5.14045 -6.58557,-6.47617 -1.40756,-3.08928 -3.57434,-3.11418 -4.73764,-0.0545 -0.49645,1.30576 -3.52281,4.38222 -6.72525,6.83658 -5.46778,4.19052 -5.80789,4.69703 -5.58099,8.31169 0.13289,2.11707 0.72149,4.14579 1.30799,4.50827 0.59842,0.36984 0.78595,1.77634 0.42735,3.2051 -0.84224,3.35576 0.84192,4.25663 4.04013,2.16108 2.22706,-1.45922 2.91383,-1.50418 5.10058,-0.33387 2.17966,1.16652 2.4401,1.81557 1.89483,4.72211 -0.58034,3.09344 -0.44279,3.34286 1.67767,3.04231 1.67228,-0.23703 2.33976,-1.01743 2.41826,-2.82739 z m -3.9424,-6.42794 c -0.31922,-0.83185 -1.67012,-1.78597 -3.002,-2.12025 -1.93998,-0.4869 -2.53171,-1.4286 -2.97516,-4.73477 -0.67653,-5.04393 -0.22653,-5.89009 2.73688,-5.14632 1.6052,0.40288 2.4986,0.0688 2.94803,-1.1024 0.47393,-1.23503 1.32619,-1.50946 3.21533,-1.03531 2.24887,0.56443 2.4895,0.39003 1.92329,-1.39393 -0.77194,-2.43217 0.70727,-2.68425 2.57132,-0.4382 2.07788,2.50369 2.37974,4.72006 1.35203,9.9273 -0.51618,2.61545 -2.87257,4.87128 -7.56254,7.23981 -0.34474,0.17409 -0.88797,-0.36407 -1.20718,-1.19593 z m 4.13397,-4.77206 c 1.89363,-1.89363 1.40265,-4.51374 -0.96167,-5.13203 -2.70794,-0.70814 -6.12924,1.02016 -5.21064,2.6322 2.23141,3.91585 4.02847,4.64367 6.17231,2.49983 z m -14.8,-2.3 c 0,-0.825 0.45,-1.5 1,-1.5 0.55,0 1,0.675 1,1.5 0,0.825 -0.45,1.5 -1,1.5 -0.55,0 -1,-0.675 -1,-1.5 z m 22.15,0.55 c 0.22,-0.66 0.72625,-1.16625 1.125,-1.125 1.1957,0.12369 0.96414,1.49529 -0.325,1.925 -0.66,0.22 -1.02,-0.14 -0.8,-0.8 z m -15.30784,-9.652 c 2.3556,-1.64992 3.86458,-1.35054 2.69896,0.53547 -0.36253,0.58659 -1.63272,1.06653 -2.82264,1.06653 h -2.16349 z m 13.15784,21.102 c 0,-0.825 -0.675,-1.5 -1.5,-1.5 -1.56157,0 -1.98397,1.1827 -0.83333,2.33333 1.15063,1.15064 2.33333,0.72824 2.33333,-0.83333 z m 58.60737,-22.91921 c 0.29953,-0.78057 -0.26062,-2.64814 -1.24479,-4.15017 -0.98416,-1.50202 -1.88182,-3.36075 -1.99479,-4.1305 -0.299,-2.03715 -2.39888,-4.30012 -3.99023,-4.30012 -1.58701,0 -1.86538,2.58048 -0.37756,3.5 0.55,0.33992 1,1.43899 1,2.44239 0,1.00339 0.84824,2.04617 1.88497,2.31728 1.42431,0.37246 1.7624,1.13414 1.38343,3.11663 -0.37719,1.97311 -0.0929,2.6237 1.14641,2.6237 0.90638,0 1.89303,-0.63865 2.19256,-1.41921 z m -76.16056,-4.30277 c 0.56738,-1.47857 0.79721,-1.51391 1.62599,-0.25 1.48123,2.25893 4.2039,-1.76621 3.40103,-5.02802 -1.06625,-4.33185 -2.47383,-4.6895 -2.47383,-0.62857 0,3.35238 -0.16667,3.60476 -1.5,2.27143 -0.825,-0.825 -1.53163,-2.31965 -1.57029,-3.32143 -0.0633,-1.63971 -0.15603,-1.62189 -0.92971,0.17857 -1.18278,2.75248 -1.18278,3.731 0,3 0.55,-0.33992 1,-0.16803 1,0.38197 0,0.55 -0.45,1.27811 -1,1.61803 -1.24071,0.7668 -1.32426,3.5 -0.10699,3.5 0.49116,0 1.19037,-0.77489 1.5538,-1.72198 z m -7.57492,-1.3832 c 1.74368,-0.60786 3.56902,-1.85014 4.0563,-2.76065 1.23871,-2.31455 0.21938,-6.69064 -2.03333,-8.72932 -1.82001,-1.64709 -1.89486,-1.59571 -1.89486,1.30062 0,1.65849 -1.0866,4.61663 -2.41467,6.57365 -1.32806,1.95701 -2.15306,3.81981 -1.83333,4.13954 0.73087,0.73087 0.39986,0.77296 4.11989,-0.52384 z m 38.60557,0.14165 c 0.32752,-0.52994 -0.3912,-1.95021 -1.59714,-3.15616 -1.46254,-1.46253 -2.15078,-3.30606 -2.06693,-5.53647 0.14951,-3.97713 -1.04091,-4.33467 -2.65288,-0.79679 -2.21349,4.85809 -1.25953,8.82209 2.33949,9.72127 3.17764,0.7939 3.34971,0.78387 3.97746,-0.23185 z m -42.76671,-3.28647 c 2.51721,-2.7502 3.71763,-6.36721 2.38626,-7.19004 -0.85967,-0.53131 -6.09701,7.00891 -6.09701,8.7779 0,1.33398 1.70372,0.60494 3.71075,-1.58786 z m 32.28925,-0.75 c 0,-1.65 -0.45,-3 -1,-3 -0.55,0 -1,1.35 -1,3 0,1.65 0.45,3 1,3 0.55,0 1,-1.35 1,-3 z m 11.58765,-1.90314 c -0.87321,-0.96489 -1.58765,-2.95641 -1.58765,-4.4256 0,-1.46919 -0.45,-2.67126 -1,-2.67126 -1.90129,0 -1.03392,6.68716 1.24278,9.58152 1.89937,2.41466 2.29559,2.57703 2.58765,1.06045 0.18968,-0.98493 -0.36957,-2.58023 -1.24278,-3.54511 z m 11.02863,0.715 c 0.42343,-0.68513 -0.0316,-1.63768 -1.07495,-2.25 -0.99509,-0.58402 -3.09897,-2.11436 -4.67529,-3.40075 -2.65961,-2.17044 -2.86604,-2.20221 -2.86604,-0.44113 0,2.25134 1.73496,4.61293 4.5,6.12529 2.58656,1.41474 3.22447,1.40956 4.11628,-0.0334 z m -9.33836,-6.06186 c -0.62785,-7.6924 -0.99093,-8.46556 -3.02181,-6.43468 -1.30469,1.30469 -1.40611,1.93468 -0.46325,2.87754 0.66393,0.66393 1.20714,2.37714 1.20714,3.80714 0,2.02778 1.51774,5 2.55321,5 0.0843,0 -0.0396,-2.3625 -0.27529,-5.25 z m -44.41961,-6 c -1.31731,-2.48234 -2.85831,-2.16785 -2.85831,0.58333 0,3.01337 0.8862,3.84871 2.50005,2.35656 0.87305,-0.80721 0.98827,-1.75271 0.35826,-2.93989 z m 73.14169,1.25 c 0,-0.55 -0.9,-1 -2,-1 -1.1,0 -2,0.45 -2,1 0,0.55 0.9,1 2,1 1.1,0 2,-0.45 2,-1 z m -16,-1.82569 c 0,-1.35477 -4.93605,-5.57159 -5.66667,-4.84098 -0.371,0.37101 0.38067,1.79778 1.67037,3.17061 2.36179,2.51401 3.9963,3.1972 3.9963,1.67037 z m 19.03544,-2.98333 0.0354,-2.69098 1.34229,2.42292 c 1.33162,2.40366 1.34769,2.40595 2.01997,0.28777 0.84292,-2.65572 -0.95416,-6.21069 -3.13954,-6.21069 -2.127,0 -5.29356,2.88702 -5.29356,4.82625 0,1.95343 3.00366,5.28952 4.13365,4.59115 0.47649,-0.29449 0.8823,-1.74638 0.90179,-3.22642 z m -16.49432,0.87555 c -0.36254,-0.58659 -1.1377,-1.06653 -1.72258,-1.06653 -0.6631,0 -0.58723,0.57378 0.20152,1.52417 1.37154,1.6526 2.59733,1.2838 1.52106,-0.45764 z m 7.95853,-0.81653 c 1.31223,3.21479 2.61891,1.79931 2.30785,-2.5 -0.27298,-3.77285 -0.58547,-4.25 -2.78342,-4.25 -3.19234,0 -5.10384,4.49405 -2.9932,7.0372 1.2719,1.53256 1.42662,1.5183 2.06469,-0.19025 0.64647,-1.73104 0.73459,-1.73712 1.40408,-0.0969 z m 18.69913,-1.78694 c 0.94373,-2.07124 0.86224,-2.83061 -0.44389,-4.13674 -2.29094,-2.29094 -4.75489,-0.96491 -4.75489,2.55896 0,2.63884 0.93887,3.79706 3.27144,4.03577 0.42429,0.0434 1.2916,-1.06267 1.92734,-2.45799 z m -25.72244,-1.46306 c 1.82499,0 2.78336,-2.98215 1.4678,-4.56731 -2.31715,-2.792 -5.59276,0.97609 -4.31016,4.95819 0.39694,1.2324 0.85669,1.58952 1.10601,0.85912 0.23467,-0.6875 1.01603,-1.25 1.73635,-1.25 z m 31.18783,-2.56722 c 0.33077,-0.86197 0.1127,-2.05591 -0.48458,-2.65319 -0.67473,-0.67473 -0.75144,-1.71108 -0.20256,-2.73667 1.2962,-2.42197 0.11532,-3.64154 -5.77348,-5.96269 -6.34227,-2.49989 -15.06122,-2.72231 -19.37002,-0.49415 -1.68693,0.87235 -3.99324,1.34391 -5.12513,1.04792 -2.44525,-0.63945 -4.63044,1.80171 -4.6766,5.22441 -0.0277,2.05324 0.30938,2.27278 2.60487,1.69664 1.45017,-0.36397 4.03767,-1.6962 5.75,-2.96052 5.76823,-4.25904 6.647,-4.11934 5.95267,0.94635 -0.72526,5.29137 1.10718,6.22294 2.07657,1.05567 0.7684,-4.09595 3.58409,-5.78261 3.58409,-2.14695 0,1.31275 0.27314,3.09863 0.60699,3.96861 1.06292,2.76992 2.39301,1.70373 2.39301,-1.91821 0,-2.83333 0.38095,-3.5 2,-3.5 1.1,0 2,0.39379 2,0.8751 0,0.4813 1.4625,1.59605 3.25,2.47723 1.7875,0.88117 2.6875,1.61238 2,1.6249 -1.3084,0.0238 -1.7344,3.20504 -0.58333,4.3561 1.19523,1.19524 3.38234,0.70253 3.9975,-0.90055 z m -62.16417,64.56722 c 0.33992,-0.55 1.20579,-1 1.92416,-1 0.71837,0 2.49212,-0.93291 3.94168,-2.07313 1.96599,-1.54645 2.48777,-2.66196 2.05383,-4.39091 -0.68529,-2.7304 0.81624,-3.94455 3.91604,-3.16655 1.47946,0.37132 2.2922,1.40535 2.43196,3.09414 0.21691,2.62085 -1.51027,3.39385 -3.38788,1.51624 -0.6936,-0.69361 -1.42792,-0.25838 -2.29379,1.35952 -0.70047,1.30885 -2.82165,3.11794 -4.71372,4.0202 -3.98528,1.90045 -4.72678,2.0231 -3.87228,0.64049 z m -67.36315,-16.7 c -2.8149,-0.99489 -3.92269,-1.81432 -3.12189,-2.30925 1.61768,-0.99978 0.58179,-2.60144 -2.14343,-3.31409 -1.62104,-0.42392 -1.87431,-0.27944 -1.01558,0.57929 0.62923,0.62923 1.14405,1.53469 1.14405,2.01214 0,1.02593 -5.96048,-3.01407 -7.7182,-5.23138 -1.99781,-2.52017 -1.37595,-3.72932 0.66176,-1.28671 2.05253,2.46038 3.46195,2.96654 2.80942,1.00893 -0.22753,-0.68259 0.20744,-1.86221 0.96661,-2.62138 1.71993,-1.71993 1.2586,-4.63755 -0.73328,-4.63755 -0.90527,0 -1.45389,0.89247 -1.40337,2.28294 0.0513,1.4114 -0.27297,1.92703 -0.84934,1.35066 -0.51275,-0.51275 -0.62361,-1.90477 -0.24637,-3.09338 0.56695,-1.78629 1.19135,-2.05009 3.60017,-1.52103 3.3534,0.73654 4.98183,-1.52592 2.90203,-4.03193 -0.8575,-1.03322 -0.89165,-1.48726 -0.11187,-1.48726 0.61734,0 1.15407,-0.7875 1.19273,-1.75 0.0575,-1.43238 0.19365,-1.47776 0.75,-0.25 1.08536,2.39519 2.90662,2.16264 5.12221,-0.65403 2.58734,-3.28927 2.62456,-6.52281 0.10136,-8.80627 -1.6664,-1.50808 -1.75104,-1.97538 -0.57142,-3.15499 0.76158,-0.76159 3.19567,-1.38471 5.40908,-1.38471 10.74826,0 13.38802,6.20666 7.99288,18.79303 -2.05468,4.79336 -2.37413,7.20697 -0.95385,7.20697 0.50629,0 1.20924,-1.31444 1.5621,-2.92099 0.90179,-4.10585 5.02393,-8.28856 7.78225,-7.89661 3.02019,0.42916 3.08408,4.83527 0.0917,6.32711 -3.94045,1.96452 -5.35665,3.71287 -5.35665,6.61293 0,1.58266 0.32765,2.87756 0.72812,2.87756 0.40046,0 2.4069,-1.83657 4.45876,-4.08127 4.32552,-4.73205 7.13873,-4.92445 7.64281,-0.52271 0.29088,2.54004 0.069,2.81074 -1.88519,2.29972 -1.57539,-0.41198 -2.99112,0.19796 -4.90339,2.11253 -2.3476,2.35041 -3.23631,2.61738 -7.00855,2.1054 -2.63004,-0.35695 -4.83725,-1.33495 -5.64219,-2.5 -0.72719,-1.05252 -1.78751,-2.45718 -2.35626,-3.12146 -0.56876,-0.66429 -1.04842,-3.81429 -1.06591,-7 -0.0181,-3.30016 -0.61898,-6.5665 -1.39655,-7.59186 -1.28287,-1.69169 -1.48793,-1.62666 -3.41802,1.08389 -1.26631,1.77837 -1.83616,3.71376 -1.48682,5.04966 0.49008,1.87406 0.15259,2.1661 -2.50326,2.1661 -2.52387,0 -3.36436,0.62092 -4.72673,3.4919 -0.91136,1.92054 -1.39652,4.17074 -1.07813,5.00045 0.49953,1.30176 1.05476,1.24126 4.05051,-0.44135 l 3.47162,-1.94989 0.30959,3.10872 c 0.2428,2.43805 1.11862,3.527 4.05959,5.04749 7.43173,3.84222 3.60013,6.12229 -5.11315,3.04268 z m 16.86315,-8.24098 c 0,-1.17986 -1.95035,-2.442 -2.66667,-1.72569 -0.71631,0.71632 0.54583,2.66667 1.72569,2.66667 0.51754,0 0.94098,-0.42344 0.94098,-0.94098 z m -4.61769,-10.31885 c 2.75039,-7.65683 3.15666,-13.05835 1.13427,-15.08073 -2.03719,-2.0372 -11.02925,-2.4017 -10.10056,-0.40944 0.32048,0.6875 0.86047,2.0375 1.19997,3 0.71798,2.03551 2.47139,2.26262 4.19115,0.54286 0.94286,-0.94286 1.52761,-0.88668 2.67089,0.2566 1.285,1.285 1.22307,2.23706 -0.50714,7.79624 -1.08399,3.48287 -1.97089,6.9674 -1.97089,7.74339 0,2.97263 1.57628,1.17889 3.38231,-3.84892 z m 119.61769,15.90905 c 0,-1.80786 2.39774,-6.52144 3.09741,-6.08902 1.50519,0.93026 1.00979,5.18469 -0.6792,5.83281 -1.80486,0.69259 -2.41821,0.75758 -2.41821,0.25621 z m -33.32105,-7.50446 c -0.38499,-1.92497 -1.78483,-3.59969 -4.19988,-5.02461 -4.2314,-2.49659 -4.40822,-5.45182 -0.35443,-5.92365 5.19413,-0.60456 10.36562,9.49188 6.50357,12.6971 -1.09674,0.91021 -1.48758,0.55956 -1.94926,-1.74884 z m -114.11833,-7.58299 c 0.54033,-2.77568 3.38296,-5.95152 4.40885,-4.92564 0.25993,0.25994 -0.15023,0.85755 -0.91149,1.32804 -0.76125,0.47048 -1.98827,2.13351 -2.72671,3.69562 l -1.34262,2.84021 z m 5.43938,-2.27378 c 0,-0.64348 0.44542,-1.44524 0.98983,-1.7817 1.16327,-0.71895 -1.44123,-3.68943 -4.73983,-5.40586 -1.2375,-0.64394 -2.25,-1.64997 -2.25,-2.23561 0,-1.54338 6.55738,-7.866 8.15,-7.85823 0.7425,0.004 0.0346,0.8737 -1.57303,1.93349 -4.59084,3.02635 -5.292,5.06251 -2.51705,7.30952 1.32055,1.06932 3.32609,1.7186 4.57252,1.48033 1.58519,-0.30303 2.18534,0.039 2.0982,1.19586 -0.14271,1.89445 -4.73064,7.09489 -4.73064,5.3622 z m 8.55584,-5.53799 c 0.36198,-0.9625 1.10814,-1.75 1.65814,-1.75 0.55,0 0.70019,-0.7875 0.33376,-1.75 -0.53727,-1.41125 -0.42032,-1.50588 0.60412,-0.48889 1.02608,1.0186 0.83533,1.69165 -0.99189,3.5 -1.74631,1.72827 -2.11216,1.83977 -1.60413,0.48889 z m 117.75781,-8 c 1.04936,-0.9625 2.64557,-1.72148 3.54713,-1.68661 1.03634,0.0401 0.73957,0.42269 -0.80691,1.04033 -1.34537,0.53731 -2.94158,1.29629 -3.54713,1.68661 -0.60555,0.39032 -0.24244,-0.0778 0.80691,-1.04033 z m -61.28,-2.92664 c -2.20153,-3.61099 -2.63927,-8.82323 -0.99847,-11.8891 1.17324,-2.19222 5.86335,-2.63573 7.76482,-0.73426 2.6681,2.6681 10e-4,14.45862 -3.52008,15.56381 -0.67105,0.2106 -2.13187,-1.1126 -3.24627,-2.94045 z m -53.53365,-3.32907 c -0.55,-0.18178 -2.575,-0.5941 -4.5,-0.91627 -4.83015,-0.80837 -11,-6.60076 -11,-10.32704 0,-1.56804 -0.5625,-3.41528 -1.25,-4.10497 -1.00046,-1.00366 -0.83788,-1.59257 0.81442,-2.95 1.13543,-0.93281 2.8333,-2.93351 3.77305,-4.44601 0.93975,-1.5125 2.31816,-2.75 3.06314,-2.75 0.74497,0 1.9313,-0.69501 2.63629,-1.54446 0.88486,-1.0662 2.17411,-1.34847 4.1634,-0.91155 1.65016,0.36244 3.47444,0.14091 4.26883,-0.51837 1.05765,-0.87777 2.06184,-0.80241 4.22699,0.31724 1.56189,0.80768 3.99632,1.24743 5.40986,0.97721 1.97139,-0.37685 3.47844,0.36541 6.46965,3.18648 5.44529,5.13557 6.44644,7.98504 4.56405,12.99016 -2.01931,5.36919 -2.82747,6.30336 -7.52743,8.70111 -3.58423,1.82853 -12.45116,3.17596 -15.11225,2.29647 z m 2.616,-3.41096 c 0.0929,-1.26858 0.20691,-1.23545 0.57333,0.16667 0.51884,1.9854 1.86158,2.28565 2.87665,0.64324 0.48679,-0.78765 0.90408,-0.75071 1.44722,0.12811 0.47027,0.76093 1.28586,0.908 2.125,0.3832 0.74899,-0.46843 1.98622,-0.86358 2.7494,-0.87812 0.76317,-0.0145 1.88587,-0.81393 2.49488,-1.77643 1.5177,-2.39863 -0.37324,-5.25 -3.48165,-5.25 -1.85607,0 -2.50327,0.66158 -2.9348,3 l -0.55361,3 -0.72144,-2.73477 c -0.46434,-1.76018 -1.60694,-2.95702 -3.20621,-3.35841 -2.64246,-0.66321 -3.31499,-3.59546 -1.46946,-6.40682 0.87528,-1.33333 1.0941,-1.33333 1.96938,0 0.54158,0.825 0.99158,2.5125 1,3.75 0.008,1.2375 0.41717,2.25 0.90832,2.25 1.54232,0 2.0915,-2.91054 1.06074,-5.62166 -0.94601,-2.48819 -0.86674,-2.57425 1.77805,-1.93045 1.52251,0.37062 4.5682,1.86711 6.7682,3.32553 3.02657,2.00639 3.57413,2.73949 2.25,3.01246 -1.22801,0.25316 -1.74543,1.30831 -1.73469,3.53744 0.0106,2.19905 0.28395,2.75256 0.8882,1.79856 0.48009,-0.75796 1.3732,-1.0689 1.98469,-0.69098 0.71671,0.44295 1.1118,-0.32885 1.1118,-2.17188 0,-1.57246 0.51723,-3.37625 1.14941,-4.00843 0.86587,-0.86587 0.74815,-1.96358 -0.47723,-4.45 -0.89465,-1.81532 -1.63689,-2.68563 -1.64941,-1.93401 -0.0263,1.57533 -1.81289,1.25996 -10.02277,-1.76917 -5.99355,-2.21138 -10.36884,-1.99074 -15.5,0.78167 -1.65,0.8915 -3.225,1.84592 -3.5,2.12092 -0.275,0.275 -1.175,0.5 -2,0.5 -0.825,0 -1.54784,0.9 -1.60632,2 -0.0585,1.1 -0.45242,2.80912 -0.87543,3.79804 -0.52983,1.23867 -0.18762,2.22324 1.09999,3.16476 2.11121,1.54376 3.33426,0.46999 3.3747,-2.9628 0.0151,-1.28148 1.4168,-2.75612 3.90164,-4.10466 l 3.87808,-2.10466 0.50161,4.45029 c 0.27589,2.44766 0.14072,5.64475 -0.30038,7.10466 -0.74658,2.47098 -0.80792,2.39936 -0.88794,-1.03661 -0.0961,-4.12509 -1.15484,-5.23932 -4.09257,-4.30692 -3.89946,1.23764 -3.60485,9.42413 0.31385,8.72138 0.84808,-0.15209 1.78109,0.11041 2.07337,0.58333 0.9812,1.58761 6.61038,0.98295 6.7354,-0.72348 z m 59.48829,-11.67216 c -0.33952,-0.88476 0.29049,-2.73324 1.42169,-4.17132 1.44323,-1.83478 1.72149,-2.89238 0.96106,-3.65281 -0.76043,-0.76043 -1.31543,-0.67373 -1.91688,0.29943 -1.04991,1.69879 -2.65645,0.80355 -3.35557,-1.86989 -0.67679,-2.58804 0.91018,-3.57076 2.99184,-1.85267 1.27121,1.0492 1.70915,1.06768 2.03952,0.0861 0.47462,-1.41017 4.25405,-1.73383 4.25405,-0.36431 0,0.48713 -0.67178,2.17463 -1.49285,3.75 -0.9316,1.78745 -1.26571,4.08617 -0.8887,6.11431 0.51799,2.7866 0.31835,3.25 -1.40017,3.25 -1.10237,0 -2.27866,-0.71498 -2.61399,-1.58883 z m -14.21128,-0.99296 c 0.33385,-0.86998 0.60699,-1.76998 0.60699,-2 0,-0.23001 0.675,-0.41821 1.5,-0.41821 0.83333,0 1.5,0.88889 1.5,2 0,1.36718 -0.66667,2 -2.10699,2 -1.51045,0 -1.93514,-0.44784 -1.5,-1.58179 z m 7.35699,0.89246 c -0.9625,-0.25152 -1.75,-0.58217 -1.75,-0.73477 0,-1.25087 2.3466,-6.5759 2.89783,-6.5759 1.5708,0 3.10217,2.56694 3.10217,5.2 0,2.7642 -0.60308,3.06371 -4.25,2.11067 z m 32.25,-5.31067 c 1.1,-1.1 2,-2.9 2,-4 0,-1.13148 0.66667,-2 1.53518,-2 1.27017,0 1.33431,0.38841 0.3715,2.25 -1.51822,2.93551 -3.99579,5.75 -5.06167,5.75 -0.46475,0 0.055,-0.9 1.15499,-2 z m -18,-1.87756 c 0,-1.59394 2.71784,-3.16794 4.37325,-2.5327 2.28873,0.87826 2.02127,2.07127 -0.62325,2.77997 -3.0697,0.82265 -3.75,0.77779 -3.75,-0.24727 z"
     id="path4641-3"
     inkscape:connector-curvature="0" />
</svg>
